<svg width="188" height="41" viewBox="0 0 188 41" fill="none" xmlns="http://www.w3.org/2000/svg">
<path d="M180.492 24.0513C179.247 24.0513 178.332 22.973 178.332 21.4697C178.332 20.0101 179.273 18.8887 180.449 18.8887C181.959 18.8887 182.603 19.8351 182.603 21.4697C182.603 23.1698 182.01 24.0513 180.492 24.0513ZM181.982 15.7932C180.972 15.8097 179.992 16.0321 179.168 16.4318C178.344 16.8316 177.714 17.3904 177.358 18.0366C176.991 18.5744 177.009 18.7322 176.741 18.7322C176.353 18.7322 176.675 18.3004 176.849 17.792C177.058 17.2143 177.086 16.6131 176.931 16.0276H172.955V29.0649H178.382V24.9314C178.737 25.3879 179.264 25.7713 179.909 26.0419C180.553 26.3126 181.292 26.4607 182.048 26.471C185.972 26.471 187.947 24.2016 187.947 21.1362C187.947 17.6614 185.583 15.7918 181.981 15.7918L181.982 15.7932ZM141.463 16.0419V26.2462H146.89V16.0419C146.044 16.3124 145.115 16.4376 144.182 16.4068C143.246 16.4367 142.313 16.3115 141.463 16.0419ZM134.736 15.7953C131.594 15.7953 130.399 17.8295 130.158 18.1828C129.917 18.5361 129.797 18.7391 129.6 18.735C129.257 18.7274 129.496 18.301 129.63 18.0257C130.154 16.8699 130.42 15.6666 130.418 14.4566C130.464 13.9445 130.388 13.4308 130.192 12.9355H125.507V26.2468H130.934V21.1642C130.934 20.336 131.417 18.8894 132.785 18.8894C133.917 18.8894 134.272 19.4627 134.272 20.6175V26.2475H139.699V20.8403C139.699 18.2177 139.063 15.7966 134.736 15.7966V15.7953ZM115.243 21.1382C115.243 20.2198 116.492 19.3841 118.784 19.3841C120.538 19.4155 122.248 19.7635 123.742 20.3927V16.8394C123.742 16.8394 122.155 15.7953 118.253 15.7953C114.14 15.7953 110.715 17.44 110.715 20.9797C110.715 24.5194 113.823 26.4819 118.242 26.4819C120.243 26.5015 122.191 26.0433 123.751 25.1863V21.8113C122.287 22.4879 120.575 22.8719 118.809 22.9204C116.186 22.9204 115.242 22.0956 115.242 21.1389L115.243 21.1382ZM103.843 12.9355H109.27V26.2468H103.843V12.9355ZM87.031 23.8565C85.733 24.0615 85.061 23.7882 85.061 23.2005C85.061 22.3956 86.28 22.073 88.019 22.073C88.786 22.073 89.507 22.1181 89.507 22.1181C89.3281 22.5222 89.0098 22.891 88.579 23.1935C88.1481 23.496 87.6172 23.7234 87.031 23.8565ZM88.352 15.7953C85.8897 15.7879 83.4542 16.1441 81.212 16.8394V19.9096C81.212 19.9096 84.506 18.6154 87.178 18.6154C89.311 18.6154 89.573 19.4012 89.476 20.0538C88.6536 19.9557 87.8181 19.9184 86.984 19.9424C82.561 19.9424 80.328 21.3159 80.328 23.519C80.328 25.6086 82.837 26.4819 84.952 26.4819C85.9754 26.5083 86.9866 26.3231 87.8533 25.9504C88.7201 25.5777 89.4021 25.0348 89.81 24.393C90.099 23.9269 90.152 23.6126 90.412 23.6126C90.708 23.6126 90.608 23.8381 90.594 24.3021C90.5426 24.9541 90.6165 25.6079 90.814 26.2468H94.904V21.2189C94.904 18.0796 93.279 15.7953 88.353 15.7953H88.352ZM166.223 15.7932C165.308 15.8247 164.427 16.0426 163.695 16.4189C162.962 16.7952 162.411 17.3127 162.113 17.9047C161.81 18.3673 161.726 18.7329 161.48 18.7329C161.134 18.7329 161.365 18.3291 161.099 17.7106C160.894 17.1269 160.39 16.6127 159.678 16.261C158.966 15.9093 158.093 15.7433 157.218 15.7932C154.71 15.7932 153.636 17.2412 153.127 18.0366C152.779 18.5805 152.778 18.7322 152.51 18.7322C152.122 18.7322 152.444 18.3004 152.618 17.792C152.827 17.2143 152.855 16.6131 152.7 16.0276H148.724V26.2434H154.151V21.1608C154.151 20.1583 154.765 18.886 155.817 18.886C157.032 18.886 157.276 19.5242 157.276 20.705V26.2462H162.725V21.1608C162.725 20.2684 163.258 18.886 164.399 18.886C165.631 18.886 165.85 19.7818 165.85 20.705V26.2434H171.201V20.2356C171.201 17.5692 169.826 15.7918 166.224 15.7918L166.223 15.7932ZM74.109 15.7932C73.1938 15.8247 72.3133 16.0426 71.5809 16.4189C70.8484 16.7952 70.2975 17.3127 69.999 17.9047C69.696 18.3673 69.612 18.7329 69.366 18.7329C69.02 18.7329 69.268 18.4152 68.985 17.7106C68.769 17.1311 68.2622 16.6217 67.553 16.2713C66.8437 15.9209 65.9771 15.7517 65.104 15.7932C62.596 15.7932 61.522 17.2412 61.013 18.0366C60.665 18.5805 60.664 18.7322 60.396 18.7322C60.008 18.7322 60.33 18.3004 60.504 17.792C60.7126 17.2143 60.7405 16.6131 60.586 16.0276H56.61V26.2434H62.037V21.1608C62.037 20.1583 62.651 18.886 63.703 18.886C64.918 18.886 65.162 19.5242 65.162 20.705V26.2462H70.611V21.1608C70.611 20.2684 71.144 18.886 72.285 18.886C73.517 18.886 73.736 19.7818 73.736 20.705V26.2434H79.087V20.2356C79.087 17.5692 77.712 15.7918 74.11 15.7918L74.109 15.7932ZM140.839 14.3138C140.839 13.4956 142.326 12.8323 144.161 12.8323C145.996 12.8323 147.483 13.4956 147.483 14.3138C147.483 15.132 145.996 15.7953 144.161 15.7953C142.326 15.7953 140.839 15.132 140.839 14.3138ZM99.378 16.4068C100.311 16.4376 101.24 16.3124 102.086 16.0419V26.2462H96.659V16.0419L99.378 16.4068ZM96.035 14.3138C96.035 13.4956 97.5223 12.8323 99.357 12.8323C101.192 12.8323 102.679 13.4956 102.679 14.3138C102.679 15.132 101.192 15.7953 99.357 15.7953C97.5223 15.7953 96.035 15.132 96.035 14.3138Z" fill="black"/>
<path d="M11.5456 21.1699C11.1498 21.1563 10.7531 21.1746 10.3636 21.2245C9.71386 21.2962 9.09145 21.4554 8.53268 21.6931C7.9739 21.9307 7.48992 22.242 7.10894 22.6087C6.72795 22.9755 6.45759 23.3904 6.31359 23.8292C6.1696 24.2681 6.15485 24.7221 6.27021 25.1649C6.55339 26.991 9.40249 28.5309 12.04 28.5767C12.3107 28.5814 12.5814 28.5691 12.8488 28.54C15.7029 28.2243 16.4502 26.2146 15.9798 24.2405C15.4483 22.0116 13.1236 21.2259 11.5456 21.1699ZM14.3422 26.4507C14.2217 26.5739 14.0545 26.6725 13.8584 26.7358C13.6623 26.7992 13.4447 26.8249 13.2288 26.8103C12.8494 26.7898 12.4955 26.6714 12.2389 26.4793C11.9824 26.2872 11.8423 26.0356 11.847 25.7755C11.8404 25.4289 11.9382 25.0851 12.1343 24.7655C12.2567 24.5624 12.2685 24.3361 12.1674 24.1276C12.0664 23.9191 11.8592 23.7423 11.5836 23.6293C11.2449 23.4858 10.8385 23.4366 10.4483 23.4919C10.0704 23.5415 9.73651 23.6911 9.51926 23.9082C9.37261 24.0702 9.25812 24.2448 9.17881 24.4274C9.16335 24.4594 9.15108 24.4844 9.14176 24.5008C9.01244 24.7261 8.80608 24.792 8.66654 24.7798C8.61515 24.7734 8.56756 24.757 8.52943 24.7326C8.49131 24.7081 8.46427 24.6768 8.45154 24.6421C8.37916 24.3413 8.41307 24.033 8.55045 23.7429C8.68784 23.4528 8.9247 23.1894 9.24131 22.9746C9.51704 22.7866 9.85195 22.644 10.2205 22.5578C10.5891 22.4716 10.9816 22.444 11.3681 22.4772C11.774 22.5105 12.162 22.6108 12.4984 22.7695C12.8349 22.9282 13.1097 23.1405 13.2993 23.388C13.4816 23.6859 13.5554 24.0096 13.5142 24.3313C13.473 24.653 13.3182 24.963 13.0629 25.2348C13.0306 25.2818 13.0011 25.3248 12.9758 25.3633C12.884 25.4697 12.8334 25.5904 12.8286 25.7139C12.8238 25.8375 12.8651 25.9598 12.9486 26.0694C13.022 26.1363 13.1179 26.1901 13.2281 26.2263C13.3384 26.2626 13.4597 26.2802 13.582 26.2777C13.6987 26.2767 13.8149 26.2661 13.9279 26.2461C14.0745 26.224 14.2261 26.2012 14.3183 26.2762C14.349 26.2998 14.3678 26.3294 14.3721 26.3608C14.3764 26.3922 14.3659 26.4236 14.3422 26.4507V26.4507Z" fill="white"/>
<path d="M48.018 30.1954C48.6134 29.1628 48.9577 28.0707 49.0371 26.9621C49.0371 25.5993 47.9079 25.0343 47.1888 25.0343C47.1668 24.9817 47.0246 24.6263 46.8287 24.1985C46.7167 23.9505 46.5838 23.707 46.4306 23.4694C47.0191 22.9139 47.2681 22.2237 47.125 21.5449C47.0073 21.0216 46.6431 20.5387 46.0877 20.1694C45.0334 19.5579 43.7754 19.1327 42.4243 18.9313C42.2207 18.8925 41.5498 18.7668 41.4909 18.7545C41.4862 18.7282 41.4419 17.2531 41.4014 16.6198C41.384 15.9848 41.2455 15.354 40.9894 14.7435C40.6711 13.8673 40.0132 13.0659 39.0848 12.4236C41.4093 10.7794 42.8603 8.96832 42.8568 7.41462C42.8502 4.42662 37.4724 3.52242 30.8452 5.39502C30.838 5.39712 29.4508 5.79837 29.441 5.80182C29.4348 5.79762 26.9024 4.10232 26.8644 4.07952C19.3085 -0.417517 -4.3161 17.5006 3.23717 21.8524L4.88786 22.8066C4.44242 23.6222 4.28516 24.4981 4.42886 25.3631C4.6526 26.6216 5.56293 27.776 6.97799 28.5958C8.3515 29.4476 10.126 29.9351 11.9802 29.9701C14.9195 34.592 21.6352 37.4273 29.5097 37.5869C37.9565 37.7581 45.0471 35.0536 48.018 30.1954ZM49.7518 24.7257C50.4754 25.3638 50.8477 26.1554 50.8036 26.9621C50.7276 28.2205 50.3425 29.4611 49.6645 30.6322L49.6485 30.6596C48.1157 33.1783 45.4397 35.2939 42.0145 36.6947C38.4496 38.1116 34.3878 38.8394 30.2641 38.8002H30.2632C29.9963 38.8002 29.7253 38.7973 29.4573 38.7919C25.3874 38.7338 21.4144 37.9324 17.9507 36.4709C14.9018 35.1654 12.4345 33.314 10.8166 31.1179C8.95266 30.9201 7.2125 30.3575 5.80652 29.4982C4.05845 28.4777 2.93865 27.0438 2.67111 25.4834C2.55188 24.7253 2.6162 23.9589 2.86149 23.215L2.09517 22.7722C1.47488 22.4061 0.970798 21.9572 0.613945 21.453C0.257092 20.9488 0.0550201 20.4 0.0201672 19.8404C-0.0427075 18.6789 0.25106 17.5213 0.882557 16.4421C2.45564 13.5073 6.07445 10.0127 10.5636 7.0939C12.5668 5.76553 14.7891 4.60063 17.1856 3.6226C19.1845 2.74898 21.4802 2.2437 23.8495 2.15592C25.3776 2.12868 26.866 2.4905 28.0256 3.1711C28.0918 3.21055 29.0838 3.87356 29.8363 4.37725C30.0251 4.3228 30.161 4.28363 30.1649 4.2826C32.391 3.62001 34.7834 3.25723 37.2106 3.21415C41.7081 3.21415 44.6177 4.8622 44.6234 7.4128C44.627 8.9866 43.4962 10.7509 41.4115 12.4588C41.9787 13.0581 42.4078 13.7133 42.6837 14.4016C42.9798 15.1062 43.142 15.8339 43.1662 16.5668C43.1864 16.8822 43.2071 17.3881 43.2238 17.8347C44.7618 18.1007 46.183 18.6164 47.3669 19.3381C48.1695 19.8822 48.6958 20.5878 48.8688 21.3512C49.0426 22.1049 48.8722 22.8768 48.3808 23.5618C48.4245 23.6476 48.47 23.7408 48.5153 23.8395C48.5546 23.9256 48.5918 24.0085 48.6265 24.0873C49.0594 24.2474 49.4418 24.4643 49.7518 24.7257H49.7518Z" fill="white"/>
<path d="M44.3973 23.2334C44.6838 23.0494 44.9072 22.8245 45.0516 22.5746C45.196 22.3248 45.2578 22.0562 45.2326 21.7881C45.1753 21.5179 44.9908 21.2678 44.707 21.0756C43.8744 20.6033 42.8837 20.2791 41.8233 20.132C41.3389 20.0381 41.0103 19.9779 40.6562 19.8974C40.0266 19.7542 39.7154 19.6389 39.645 18.821C39.6142 18.4633 39.5239 17.2172 39.4914 16.7023C39.434 15.8 39.2767 14.5667 38.1692 14.0575C37.8875 13.9298 37.5599 13.8574 37.2221 13.8484C37.033 13.8404 36.8432 13.8533 36.6601 13.8864C36.0979 13.9761 35.5863 14.1759 35.1878 14.4613C34.6719 14.7832 34.0636 15.0283 33.4016 15.181C32.7397 15.3337 32.0384 15.3906 31.3425 15.3482C30.5673 15.3257 29.7459 15.2424 28.8042 15.2038C28.6209 15.1964 28.4372 15.1886 28.2537 15.1819C27.0369 15.2065 25.8736 15.5291 24.9758 16.0909C24.0781 16.6528 23.5059 17.4164 23.3634 18.2426C22.8243 20.8051 25.5103 22.1293 26.2857 22.9063C26.4056 23.0055 26.4799 23.1267 26.4991 23.2547C26.479 23.3966 26.3803 23.5279 26.2231 23.6217L26.2233 23.6225C25.1495 24.4485 24.3956 25.4451 24.0305 26.5215C23.6653 27.5978 23.7005 28.7195 24.1329 29.7841C24.2354 30.0398 24.3668 30.2896 24.5259 30.5314C26.4858 33.6957 32.5659 35.1693 38.5059 33.8291C39.284 33.6535 40.0389 33.4331 40.7625 33.1703C42.0649 32.7255 43.2363 32.1207 44.2183 31.3862C45.7504 30.3243 46.7566 28.9609 47.0954 27.4879C47.2744 26.6724 47.0123 26.3568 46.6556 26.205C46.4037 26.1081 46.1118 26.0713 45.8258 26.1004C45.6747 25.4602 45.4093 24.835 45.0356 24.239L44.3973 23.2334Z" fill="white"/>
<path d="M34.6629 11.0125C34.7587 11.0275 34.8196 10.9144 34.7339 10.8815C33.3148 10.379 31.7496 10.0991 30.1522 10.0622C30.1369 10.0621 30.1219 10.059 30.1089 10.0534C30.0959 10.0478 30.0855 10.0398 30.0787 10.0304C30.0719 10.021 30.0691 10.0105 30.0705 10C30.0719 9.98957 30.0775 9.97959 30.0867 9.97119C30.335 9.74941 30.6249 9.55091 30.9489 9.38079C30.9634 9.37309 30.9739 9.36242 30.9789 9.35034C30.9839 9.33826 30.9831 9.3254 30.9767 9.31365C30.9702 9.3019 30.9584 9.29187 30.943 9.28503C30.9276 9.27819 30.9094 9.2749 30.8911 9.27563C28.9352 9.40691 27.0549 9.85987 25.411 10.5958C25.397 10.6023 25.3805 10.6057 25.3635 10.6057C25.3466 10.6056 25.3301 10.6022 25.3162 10.5956C25.3022 10.5891 25.2914 10.5799 25.2852 10.5692C25.279 10.5584 25.2776 10.5466 25.2813 10.5354C25.4137 10.1979 25.6086 9.87339 25.8612 9.56965C25.8695 9.55923 25.8727 9.54725 25.8704 9.53548C25.868 9.52372 25.8601 9.51279 25.848 9.50431C25.8358 9.49582 25.82 9.49023 25.8028 9.48836C25.7856 9.48648 25.768 9.48843 25.7526 9.4939C23.3787 10.3849 21.263 11.5646 19.5095 12.9751C19.4958 12.9858 19.4884 12.9996 19.4886 13.0139C19.4888 13.0281 19.4967 13.0418 19.5107 13.0524C19.5247 13.0629 19.544 13.0695 19.5647 13.071C19.5854 13.0725 19.6062 13.0688 19.6232 13.0604C21.6552 12.0902 23.9444 11.3997 26.3628 11.0276C29.0928 10.5973 31.9295 10.5921 34.6628 11.0125" fill="white"/>
<path d="M27.6712 6.4354C27.6712 6.4354 25.6147 4.8085 24.994 4.6885C21.1747 3.98425 12.9245 7.86668 7.65682 12.9961C5.52537 15.0715 2.47416 18.7468 3.93316 20.6371C4.45174 21.0615 5.03632 21.4462 5.67661 21.7842C6.65416 20.8479 8.12539 20.2074 9.78035 19.9977C11.8573 16.0298 15.5033 12.533 20.3131 9.8956C22.6212 8.60481 25.0824 7.44742 27.6712 6.4354Z" fill="white"/>
<path d="M14.2039 26.3801C14.2336 26.4047 14.2516 26.4347 14.2558 26.4664C14.2599 26.4981 14.2499 26.5298 14.2271 26.5575C14.1163 26.6805 13.9574 26.7798 13.7683 26.8443C13.5792 26.9089 13.3676 26.936 13.1571 26.9228C12.7821 26.8952 12.4364 26.7713 12.1899 26.5762C11.9434 26.3811 11.8144 26.1294 11.8291 25.8718C11.8228 25.5208 11.9166 25.1723 12.1052 24.8458C12.2243 24.6413 12.2368 24.4149 12.1404 24.2048C12.0441 23.9947 11.8449 23.8137 11.5762 23.6921C11.4172 23.6202 11.2388 23.5708 11.0514 23.5469C10.864 23.5229 10.6715 23.5248 10.4852 23.5525C10.3027 23.5788 10.1297 23.6297 9.97646 23.7023C9.82317 23.7748 9.69267 23.8676 9.59264 23.9752C9.45115 24.1407 9.34113 24.3179 9.26526 24.5025C9.25062 24.535 9.23881 24.5605 9.22986 24.577C9.10555 24.8061 8.90737 24.8729 8.77309 24.8606C8.70961 24.8546 8.62232 24.8256 8.56637 24.7207C8.49614 24.4176 8.52801 24.1075 8.65955 23.814C8.7911 23.5205 9.01885 23.2514 9.32549 23.0271C9.58302 22.8381 9.90268 22.6937 10.258 22.6059C10.6134 22.5181 10.9942 22.4894 11.3691 22.5221C11.7662 22.5594 12.1435 22.6634 12.4674 22.8248C12.7912 22.9862 13.0514 23.2 13.2247 23.4469C13.4001 23.7505 13.4709 24.0776 13.4316 24.4029C13.3923 24.7282 13.2438 25.0429 12.9978 25.3226C12.9667 25.3702 12.9382 25.4138 12.9142 25.4533C12.8257 25.5626 12.7771 25.6848 12.7726 25.8096C12.768 25.9345 12.8076 26.0582 12.8879 26.1704C12.9559 26.2373 13.047 26.2916 13.1532 26.3285C13.2594 26.3654 13.3774 26.3837 13.4965 26.3818C13.6088 26.3807 13.7204 26.3699 13.8287 26.3497C13.9697 26.3271 14.1154 26.304 14.2039 26.3801L14.2039 26.3801ZM48.9611 26.9731C48.8823 28.0791 48.5404 29.1689 47.9487 30.1997C44.9971 35.0476 37.953 37.7465 29.5615 37.5757C21.7388 37.4164 15.0668 34.587 12.1467 29.9748C10.3033 29.9395 8.53975 29.4528 7.17754 28.6034C5.77036 27.7836 4.86624 26.632 4.64501 25.3775C4.50222 24.5144 4.65843 23.6405 5.10101 22.8263L3.46108 21.8741C-4.04264 17.5314 19.427 -0.349061 26.9336 4.13863C26.9715 4.16122 29.4871 5.85311 29.4934 5.85728C29.5034 5.85379 30.8814 5.45328 30.8884 5.45132C37.4722 3.58262 42.8148 4.4849 42.8215 7.46648C42.825 9.01708 41.3834 10.8244 39.0743 12.465C39.9972 13.1068 40.6506 13.9064 40.9661 14.78C41.2207 15.3894 41.3583 16.0189 41.3755 16.6526C41.4156 17.2844 41.4599 18.7565 41.4644 18.7828C41.523 18.7949 42.1895 18.9203 42.3916 18.9592C43.7349 19.1605 44.9849 19.5849 46.0311 20.1947C46.5834 20.5638 46.9451 21.0455 47.0617 21.5673C47.204 22.2443 46.9568 22.9327 46.3719 23.4877C46.5241 23.7249 46.6562 23.9678 46.7675 24.2154C46.9618 24.6424 47.1032 24.9968 47.1249 25.0493C47.8393 25.0493 48.9612 25.613 48.9612 26.9731L48.9611 26.9731ZM15.8003 24.3129C15.29 22.0491 13.0558 21.2512 11.5398 21.1943C11.1592 21.1805 10.7777 21.1991 10.4039 21.2497C7.698 21.6239 6.16979 23.2015 6.4705 25.2515C6.6895 26.1711 7.35587 27.0133 8.3619 27.6421C9.36793 28.2709 10.6548 28.6495 12.0147 28.7167C12.2749 28.7215 12.5352 28.7089 12.7919 28.6793C15.5344 28.3587 16.2524 26.3177 15.8003 24.3129ZM20.4252 9.94236C22.7173 8.65471 25.1624 7.49974 27.735 6.48943C27.735 6.48943 25.6923 4.86602 25.0754 4.74638C21.2812 4.04338 13.0849 7.91773 7.85182 13.0363C5.73437 15.1074 2.70318 18.7751 4.15245 20.6613C4.66731 21.0847 5.24809 21.4685 5.88453 21.806C6.85346 20.8727 8.31546 20.2335 9.96153 20.0233C12.0209 16.0675 15.6425 12.5783 20.4252 9.94236ZM28.6716 27.8567C28.7721 28.1576 28.9898 28.4343 29.3014 28.6576C29.6131 28.8809 30.0073 29.0426 30.4423 29.1255C30.8949 29.2407 31.3618 29.3276 31.8373 29.3851C37.8391 30.0927 43.45 27.7407 44.7133 27.1483C44.8082 27.1038 44.8708 27.1472 44.7947 27.2257C44.7567 27.2675 44.7154 27.3078 44.671 27.3466C43.1249 28.7135 38.9683 30.2965 33.5605 30.2959C31.202 30.2957 28.8446 29.7261 27.9791 28.851C26.6362 27.4932 27.9126 25.5112 30.1501 25.7177C30.1527 25.718 30.9157 25.7773 31.1302 25.7936C34.6084 26.0222 38.1142 25.6376 41.313 24.6767C44.3658 23.7054 45.519 22.6365 45.346 21.7712C45.2882 21.5024 45.1033 21.254 44.8197 21.0637C43.9848 20.5941 42.9936 20.2723 41.9335 20.1267C41.4487 20.0334 41.1197 19.9739 40.7652 19.8938C40.1351 19.7516 39.8236 19.6371 39.753 18.8249C39.7223 18.4697 39.632 17.2323 39.5992 16.7209C39.5416 15.8249 39.3845 14.6002 38.2757 14.0945C37.9934 13.9676 37.6656 13.8958 37.3279 13.8869C37.1386 13.879 36.9486 13.8918 36.7652 13.9247C36.2035 14.0135 35.6916 14.2118 35.2917 14.4956C34.7735 14.8157 34.1641 15.0591 33.5017 15.2106C32.8394 15.3622 32.1383 15.4186 31.4426 15.3763C30.6667 15.3541 29.8446 15.2713 28.9021 15.2329C28.7188 15.2255 28.5347 15.2177 28.3509 15.2113C27.1375 15.233 25.9758 15.5519 25.0774 16.1097C24.179 16.6675 23.6036 17.4272 23.456 18.2506C22.9164 20.7952 25.605 22.1102 26.3812 22.8818C26.5011 22.98 26.5755 23.1005 26.5948 23.2278C26.5744 23.3689 26.4755 23.4993 26.3185 23.5922V23.593C25.2449 24.4103 24.4903 25.3995 24.1246 26.469C23.7589 27.5385 23.7939 28.6538 24.2263 29.7116C24.3289 29.9656 24.4604 30.2138 24.6196 30.4538C26.5814 33.596 32.6672 35.0592 38.6128 33.7282C39.3913 33.554 40.1469 33.3353 40.8717 33.0744C42.1736 32.6334 43.3461 32.0328 44.3307 31.3025C45.862 30.2509 46.8696 28.8964 47.2105 27.4314C47.3895 26.6214 47.1275 26.3082 46.7703 26.1574C46.5177 26.0613 46.2258 26.0247 45.9397 26.0534C45.7883 25.4174 45.5227 24.7965 45.1489 24.2049C43.4508 25.0805 41.5312 25.7349 39.4863 26.1353C37.0258 26.6103 34.4663 26.8 31.914 26.6965C30.2721 26.6055 29.1858 26.277 28.7772 27.1871C31.2609 27.7546 33.898 27.9385 36.4982 27.7254C36.5165 27.7241 36.535 27.7253 36.5526 27.7289C36.5702 27.7325 36.5866 27.7385 36.6009 27.7465C36.6151 27.7544 36.6269 27.7642 36.6356 27.7753C36.6443 27.7864 36.6496 27.7985 36.6514 27.811C36.6542 27.832 36.6473 27.8531 36.6318 27.8714C36.6163 27.8896 36.5928 27.9041 36.5648 27.9128C36.5648 27.9128 33.515 28.8834 28.6716 27.8567ZM19.7398 13.1005C21.7569 12.1328 24.0314 11.4437 26.4353 11.0721C29.1471 10.6427 31.9659 10.6375 34.6811 11.0569C34.7761 11.0718 34.8367 10.959 34.7517 10.9264C33.3427 10.4251 31.7874 10.1456 30.1998 10.1086C30.1845 10.1084 30.1696 10.1053 30.1567 10.0997C30.1438 10.0941 30.1334 10.0862 30.1267 10.0768C30.1199 10.0674 30.1171 10.0569 30.1185 10.0465C30.12 10.0361 30.1255 10.0262 30.1347 10.0178C30.3813 9.79663 30.6694 9.59853 30.9915 9.42862C31.0059 9.42092 31.0164 9.41028 31.0213 9.39824C31.0263 9.3862 31.0255 9.37339 31.0191 9.36167C31.0127 9.34996 31.0009 9.33995 30.9856 9.3331C30.9703 9.32626 30.9522 9.32293 30.9339 9.32361C28.9898 9.45495 27.1214 9.90707 25.4896 10.6411C25.4757 10.6475 25.4592 10.651 25.4424 10.6509C25.4256 10.6509 25.4091 10.6474 25.3952 10.6409C25.3813 10.6344 25.3706 10.6252 25.3645 10.6145C25.3583 10.6038 25.3571 10.5921 25.3608 10.5808C25.4923 10.2442 25.6858 9.92042 25.9368 9.6172C25.9452 9.60683 25.9484 9.59491 25.9461 9.58318C25.9437 9.57146 25.936 9.56056 25.9239 9.55208C25.9118 9.54361 25.8961 9.538 25.879 9.53609C25.8619 9.53418 25.8444 9.53607 25.829 9.54147C23.4691 10.4316 21.3671 11.609 19.6268 13.0156C19.6132 13.0263 19.6058 13.04 19.606 13.0541C19.6062 13.0683 19.614 13.0819 19.628 13.0924C19.6419 13.1029 19.661 13.1095 19.6816 13.111C19.7022 13.1125 19.7229 13.1087 19.7398 13.1005ZM35.5446 21.7382C35.7089 21.8093 35.9057 21.8365 36.0975 21.8147C36.2893 21.793 36.4626 21.7237 36.5844 21.6201C36.7358 21.4199 36.516 21.1483 36.0933 21.0135C35.929 20.9424 35.7321 20.9152 35.5403 20.937C35.3485 20.9589 35.1752 21.0282 35.0535 21.1318C34.9019 21.3319 35.1219 21.6034 35.5446 21.7382ZM36.8413 18.4914C36.9427 18.8519 37.1615 19.1922 37.4815 19.487C37.8121 19.4593 38.1464 19.4593 38.4771 19.487C38.6704 19.0913 38.6873 18.6653 38.5257 18.263C38.2868 17.5208 37.9634 17.0716 37.2952 17.1414C36.6272 17.2114 36.6025 17.7492 36.8413 18.4914ZM38.2628 20.1965C38.0942 20.1634 37.9148 20.1673 37.7497 20.2075C37.5846 20.2477 37.442 20.3223 37.3421 20.4208C37.2422 20.5192 37.1899 20.6365 37.1926 20.7563C37.1954 20.8761 37.2529 20.9923 37.3573 21.0886C37.4616 21.1848 37.6074 21.2564 37.7743 21.2931C37.9412 21.3298 38.1207 21.3299 38.2876 21.2933C38.4546 21.2567 38.6005 21.1853 38.705 21.0891C38.8095 20.9929 38.8672 20.8767 38.8701 20.7569C38.8943 20.628 38.8447 20.4977 38.7314 20.3932C38.6182 20.2887 38.4503 20.2182 38.2628 20.1965Z" fill="black"/>
<path d="M27.1694 20.1301C27.0628 20.1199 27.0174 20.0887 27.004 20.0474C26.9626 19.9194 27.2508 19.7087 27.5546 19.5565C27.998 19.335 28.5173 19.1952 29.0626 19.1505C29.6079 19.1057 30.1609 19.1576 30.6684 19.3011C31.1426 19.4348 31.5503 19.659 31.8428 19.947C31.9514 20.0681 31.9724 20.162 31.9022 20.2112C31.7928 20.29 31.5138 20.1997 31.0596 20.0636C30.514 19.8806 29.911 19.7919 29.3036 19.8051C28.5838 19.8861 27.8713 19.9946 27.1694 20.1301ZM31.6964 20.767C31.5001 20.626 31.2558 20.5205 30.9852 20.4599C30.7146 20.3993 30.4263 20.3855 30.146 20.4197C29.7326 20.4498 29.341 20.5613 29.0188 20.7408C28.8686 20.8144 28.7654 20.9245 28.7304 21.0485C28.7296 21.0623 28.7332 21.0761 28.741 21.0888C28.7488 21.1015 28.7606 21.1129 28.7756 21.1222C28.8022 21.1387 28.837 21.1478 28.873 21.1475C29.0217 21.1326 29.1671 21.105 29.3058 21.0655C29.913 20.9091 30.5691 20.8625 31.2104 20.9303C31.5076 20.9531 31.648 20.9658 31.7132 20.8961C31.7299 20.876 31.7373 20.8529 31.7343 20.8298C31.7313 20.8067 31.718 20.7848 31.6964 20.767Z" fill="black"/>
<path d="M30.8548 20.9531C31.0424 20.497 31.0531 20.0155 30.886 19.5557C30.6442 18.8123 30.2787 18.3875 29.6011 18.4575C28.9236 18.5275 28.906 19.1265 29.1244 19.873C29.2248 20.2151 29.4204 20.5409 29.7006 20.8326C30.2397 21.3467 30.6053 21.2136 30.8538 20.9531L30.8548 20.9531Z" fill="black"/>
</svg>
